<svg xmlns="http://www.w3.org/2000/svg" xmlns:svg="http://www.w3.org/2000/svg" id="svg4443" width="68" height="130" version="1.1" viewBox="0 0 744.094 1052.362"><metadata id="metadata4448"/><g id="layer1"><path style="opacity:1;fill:#fc0;fill-opacity:1;fill-rule:nonzero;stroke-width:13.34501266" id="rect855" d="M -3.7001955e-6,208.84668 H 744.09448 V 1193.6776 H -3.7001955e-6 Z"/><g style="font-style:normal;font-variant:normal;font-weight:800;font-stretch:normal;font-size:267.97195435px;line-height:0%;font-family:Raleway;-inkscape-font-specification:'Raleway Ultra-Bold';letter-spacing:0;word-spacing:0;fill:#7d7d7d;fill-opacity:1;stroke:none;stroke-width:22.33099747px;stroke-linecap:butt;stroke-linejoin:miter;stroke-opacity:1" id="text4305" aria-label="NOVA"><path style="font-style:normal;font-variant:normal;font-weight:800;font-stretch:normal;font-family:Raleway;-inkscape-font-specification:'Raleway Ultra-Bold';fill:#7d7d7d;fill-opacity:1;stroke-width:22.33099747px" id="path943" d="M 53.238054,28.894823 V 137.69144 H 9.2906535 V -52.568651 H 43.591064 L 132.28978,59.175654 V -52.568651 h 43.9474 V 137.69144 h -35.3723 z"/><path style="font-style:normal;font-variant:normal;font-weight:800;font-stretch:normal;font-family:Raleway;-inkscape-font-specification:'Raleway Ultra-Bold';fill:#7d7d7d;fill-opacity:1;stroke-width:22.33099747px" id="path945" d="m 296.22582,139.29927 q -21.16979,0 -38.58796,-8.30713 -17.41818,-8.30713 -29.74489,-21.70573 -12.32671,-13.66657 -19.29398,-31.084747 -6.6993,-17.418177 -6.6993,-35.908242 0,-18.758037 6.96727,-36.1762138 7.23524,-17.4181772 19.82993,-30.5488032 12.86265,-13.398597 30.28083,-21.169784 17.41817,-8.039159 38.05201,-8.039159 21.16979,0 38.58796,8.307131 17.41818,8.307131 29.74489,21.9737 12.32671,13.6665699 19.02601,31.0847469 6.6993,17.4181771 6.6993,35.3722981 0,18.758037 -7.23524,36.176214 -6.96727,17.418177 -19.56196,30.816779 -12.59468,13.13062 -30.01285,21.16978 -17.41818,8.03916 -38.05202,8.03916 z M 246.65101,42.829365 q 0,10.98685 3.21566,21.437756 3.21566,10.182935 9.37902,18.222093 6.43132,8.039159 15.81034,12.862654 9.37902,4.823492 21.43776,4.823492 12.59468,0 21.9737,-5.091464 9.37902,-5.091467 15.54237,-13.130626 6.16336,-8.30713 9.11105,-18.490065 3.21566,-10.450906 3.21566,-21.169784 0,-10.98685 -3.21566,-21.169784 -3.21566,-10.450907 -9.64699,-18.2220933 -6.43133,-8.0391586 -15.81035,-12.5946818 -9.11104,-4.8234949 -21.16978,-4.8234949 -12.59468,0 -21.9737,5.0914668 -9.11105,4.8234952 -15.54237,12.8626538 -6.16336,8.0391584 -9.37902,18.4900644 -2.94769,10.182935 -2.94769,20.901813 z"/><path style="font-style:normal;font-variant:normal;font-weight:800;font-stretch:normal;font-family:Raleway;-inkscape-font-specification:'Raleway Ultra-Bold';fill:#7d7d7d;fill-opacity:1;stroke-width:22.33099747px" id="path947" d="m 437.27955,-52.568651 44.75132,135.057865 44.21537,-135.057865 h 46.35915 L 500.52093,137.69144 H 463.5408 L 390.65243,-52.568651 Z"/><path style="font-style:normal;font-variant:normal;font-weight:800;font-stretch:normal;font-family:Raleway;-inkscape-font-specification:'Raleway Ultra-Bold';fill:#7d7d7d;fill-opacity:1;stroke-width:22.33099747px" id="path949" d="m 625.73922,-52.568651 h 39.65985 L 734.80381,137.69144 H 689.78452 L 675.04606,95.083896 h -59.2218 L 601.35377,137.69144 H 556.33448 Z M 667.81082,64.803065 645.56915,-2.4578954 622.79153,64.803065 Z"/></g><g style="font-style:normal;font-weight:400;font-size:829.6036377px;line-height:1.25;font-family:sans-serif;letter-spacing:0;word-spacing:0;fill:#fff;fill-opacity:1;stroke:none;stroke-width:20.74009132" id="text853" aria-label="2"><path style="font-style:normal;font-variant:normal;font-weight:700;font-stretch:normal;font-family:'Open Sans';-inkscape-font-specification:'Open Sans Bold';fill:#fff;stroke-width:20.74009132" id="path952" d="M 601.96055,997.37555 H 187.96889 V 910.28337 L 336.63321,759.99873 q 66.02802,-67.64835 86.28202,-93.57346 20.25399,-26.33019 29.16575,-48.60959 8.91176,-22.27939 8.91176,-46.17911 0,-35.64703 -19.84892,-53.06546 -19.44383,-17.41844 -52.2553,-17.41844 -34.43179,0 -66.83819,15.79812 -32.40639,15.79811 -67.64834,44.96387 l -68.05342,-80.6109 q 43.74863,-37.26736 72.5093,-52.66039 28.76067,-15.39304 62.78738,-23.49464 34.02672,-8.50667 76.15503,-8.50667 55.49594,0 98.02933,20.25399 42.53339,20.254 66.02803,56.71119 23.49463,36.45719 23.49463,83.44646 0,40.91307 -14.58288,76.96518 -14.17779,35.64703 -44.55879,73.31946 -29.97591,37.67243 -106.13093,107.34617 l -76.15502,71.69915 v 5.67111 h 258.0359 z"/></g></g></svg>